<?xml version="1.0" encoding="UTF-8"?>
<svg xmlns="http://www.w3.org/2000/svg" xmlns:xlink="http://www.w3.org/1999/xlink" width="501.6pt" height="634.2pt" viewBox="0 0 501.6 634.2" version="1.1">
<defs>
<clipPath id="clip1">
  <path d="M 0 0 L 501.601563 0 L 501.601563 634.199219 L 0 634.199219 Z M 0 0 "/>
</clipPath>
</defs>
<g id="surface1">
<g clip-path="url(#clip1)" clip-rule="nonzero">
<path style=" stroke:none;fill-rule:evenodd;fill:rgb(88.671875%,0%,10.205078%);fill-opacity:1;" d="M 0.0546875 -0.078125 L 501.617188 -0.078125 L 501.617188 299.921875 C 338.917969 356.496094 169.757813 216.359375 0.0546875 269.261719 Z M 41.925781 171.910156 L 41.925781 33.320313 L 118.34375 33.320313 C 132.507813 33.320313 143.355469 34.449219 150.816406 36.742188 C 158.3125 38.996094 164.359375 43.226563 168.953125 49.355469 C 173.546875 55.515625 175.828125 63.03125 175.828125 71.871094 C 175.828125 79.550781 174.066406 86.195313 170.542969 91.777344 C 167.054688 97.390625 162.214844 101.90625 156.03125 105.390625 C 152.128906 107.585938 146.738281 109.421875 139.933594 110.871094 C 145.390625 112.585938 149.367188 114.261719 151.851563 115.972656 C 153.511719 117.101563 155.964844 119.554688 159.175781 123.261719 C 162.355469 126.972656 164.496094 129.84375 165.566406 131.871094 L 187.851563 171.910156 L 136.03125 171.910156 L 111.535156 129.648438 C 108.429688 124.164063 105.664063 120.617188 103.246094 118.972656 C 99.929688 116.84375 96.164063 115.777344 91.984375 115.777344 L 87.941406 115.777344 L 87.941406 171.910156 Z M 87.941406 89.648438 L 107.324219 89.648438 C 109.394531 89.648438 113.472656 89.003906 119.484375 87.742188 C 122.523438 87.195313 125.011719 85.742188 126.910156 83.390625 C 128.84375 81.035156 129.8125 78.355469 129.8125 75.324219 C 129.8125 70.839844 128.292969 67.386719 125.25 64.996094 C 122.210938 62.578125 116.511719 61.386719 108.117188 61.386719 L 87.941406 61.386719 Z M 202.738281 33.320313 L 316.121094 33.320313 L 316.121094 63.128906 L 248.753906 63.128906 L 248.753906 87.324219 L 306.378906 87.324219 L 306.378906 115.390625 L 248.753906 115.390625 L 248.753906 171.910156 L 202.738281 171.910156 Z M 332.910156 126.070313 L 376.4375 123.519531 C 377.371094 130.101563 379.304688 135.132813 382.207031 138.554688 C 386.941406 144.136719 393.675781 146.941406 402.453125 146.941406 C 408.980469 146.941406 414.023438 145.523438 417.550781 142.652344 C 421.105469 139.78125 422.867188 136.453125 422.867188 132.683594 C 422.867188 129.101563 421.210938 125.871094 417.859375 123.035156 C 414.507813 120.199219 406.703125 117.550781 394.4375 115.003906 C 374.332031 110.808594 360.027344 105.195313 351.460938 98.195313 C 342.824219 91.226563 338.507813 82.324219 338.507813 71.484375 C 338.507813 64.386719 340.71875 57.675781 345.140625 51.355469 C 349.5625 44.996094 356.195313 40.03125 365.074219 36.414063 C 373.953125 32.804688 386.113281 30.996094 401.554688 30.996094 C 420.519531 30.996094 434.960938 34.289063 444.910156 40.902344 C 454.859375 47.484375 460.765625 57.96875 462.667969 72.355469 L 419.550781 74.742188 C 418.414063 68.453125 415.996094 63.871094 412.332031 61.03125 C 408.636719 58.160156 403.558594 56.742188 397.097656 56.742188 C 391.777344 56.742188 387.734375 57.808594 385.039063 59.902344 C 382.347656 61.996094 381 64.578125 381 67.613281 C 381 69.808594 382.105469 71.773438 384.28125 73.550781 C 386.386719 75.386719 391.5 77.066406 399.585938 78.648438 C 419.621094 82.679688 433.957031 86.777344 442.59375 90.90625 C 451.265625 95.035156 457.589844 100.132813 461.527344 106.261719 C 465.464844 112.359375 467.433594 119.199219 467.433594 126.777344 C 467.433594 135.652344 464.808594 143.84375 459.558594 151.363281 C 454.273438 158.847656 446.949219 164.554688 437.480469 168.425781 C 428.050781 172.296875 416.167969 174.234375 401.796875 174.234375 C 376.578125 174.234375 359.097656 169.683594 349.390625 160.621094 C 339.679688 151.554688 334.1875 140.039063 332.910156 126.070313 Z M 501.617188 343.09375 L 501.617188 404.835938 C 338.917969 461.363281 169.753906 321.226563 0.0546875 374.171875 L 0.0546875 312.765625 C 176.320313 259.121094 281.335938 387.929688 501.617188 343.09375 Z M 501.617188 447.996094 L 501.617188 511.066406 C 338.917969 567.644531 169.757813 427.503906 0.0546875 480.402344 L 0.0546875 417.679688 C 176.339844 363.992188 281.351563 492.804688 501.617188 447.996094 Z M 501.617188 554.238281 L 501.617188 634.171875 L 0.0546875 634.171875 L 0.0546875 523.910156 C 176.320313 470.265625 281.335938 599.074219 501.617188 554.238281 Z M 501.617188 554.238281 "/>
</g>
</g>
</svg>
